<mxfile host="app.diagrams.net" agent="Mozilla/5.0 (Macintosh; Intel Mac OS X 10_15_7) AppleWebKit/537.36 (KHTML, like Gecko) Chrome/130.0.0.0 Safari/537.36" version="24.8.3">
  <diagram name="Seite-1" id="hvNazGXBu3YfBJJGXccA">
    <mxGraphModel dx="918" dy="1003" grid="1" gridSize="10" guides="1" tooltips="1" connect="1" arrows="1" fold="1" page="1" pageScale="1" pageWidth="1169" pageHeight="827" math="0" shadow="0">
      <root>
        <mxCell id="0" />
        <mxCell id="1" parent="0" />
        <mxCell id="w8iG2MjJuLjTD7SWvWNW-1" value="Region" style="sketch=0;outlineConnect=0;gradientColor=none;html=1;whiteSpace=wrap;fontSize=12;fontStyle=0;shape=mxgraph.aws4.group;grIcon=mxgraph.aws4.group_region;strokeColor=#879196;fillColor=none;verticalAlign=top;align=left;spacingLeft=30;fontColor=#879196;dashed=1;" parent="1" vertex="1">
          <mxGeometry x="10" y="130" width="430" height="600" as="geometry" />
        </mxCell>
        <mxCell id="w8iG2MjJuLjTD7SWvWNW-2" value="Availability zone" style="sketch=0;outlineConnect=0;gradientColor=none;html=1;whiteSpace=wrap;fontSize=12;fontStyle=0;shape=mxgraph.aws4.group;grIcon=mxgraph.aws4.group_availability_zone;strokeColor=#545B64;fillColor=none;verticalAlign=top;align=left;spacingLeft=30;fontColor=#545B64;dashed=1;" parent="1" vertex="1">
          <mxGeometry x="70" y="240" width="300" height="450" as="geometry" />
        </mxCell>
        <mxCell id="w8iG2MjJuLjTD7SWvWNW-5" value="Public subnet" style="points=[[0,0],[0.25,0],[0.5,0],[0.75,0],[1,0],[1,0.25],[1,0.5],[1,0.75],[1,1],[0.75,1],[0.5,1],[0.25,1],[0,1],[0,0.75],[0,0.5],[0,0.25]];outlineConnect=0;gradientColor=none;html=1;whiteSpace=wrap;fontSize=12;fontStyle=0;container=1;pointerEvents=0;collapsible=0;recursiveResize=0;shape=mxgraph.aws4.group;grIcon=mxgraph.aws4.group_security_group;grStroke=0;strokeColor=#7AA116;fillColor=#F2F6E8;verticalAlign=top;align=left;spacingLeft=30;fontColor=#248814;dashed=0;" parent="1" vertex="1">
          <mxGeometry x="80" y="280" width="250" height="230" as="geometry" />
        </mxCell>
        <mxCell id="w8iG2MjJuLjTD7SWvWNW-24" value="10.0.5.0/24" style="text;html=1;align=center;verticalAlign=middle;whiteSpace=wrap;rounded=0;" parent="w8iG2MjJuLjTD7SWvWNW-5" vertex="1">
          <mxGeometry x="120" y="18" width="60" height="30" as="geometry" />
        </mxCell>
        <mxCell id="w8iG2MjJuLjTD7SWvWNW-8" value="Private subnet" style="points=[[0,0],[0.25,0],[0.5,0],[0.75,0],[1,0],[1,0.25],[1,0.5],[1,0.75],[1,1],[0.75,1],[0.5,1],[0.25,1],[0,1],[0,0.75],[0,0.5],[0,0.25]];outlineConnect=0;gradientColor=none;html=1;whiteSpace=wrap;fontSize=12;fontStyle=0;container=1;pointerEvents=0;collapsible=0;recursiveResize=0;shape=mxgraph.aws4.group;grIcon=mxgraph.aws4.group_security_group;grStroke=0;strokeColor=#00A4A6;fillColor=#E6F6F7;verticalAlign=top;align=left;spacingLeft=30;fontColor=#147EBA;dashed=0;" parent="1" vertex="1">
          <mxGeometry x="80" y="540" width="250" height="130" as="geometry" />
        </mxCell>
        <mxCell id="w8iG2MjJuLjTD7SWvWNW-28" value="10.0.10.0/24" style="text;html=1;align=center;verticalAlign=middle;whiteSpace=wrap;rounded=0;" parent="w8iG2MjJuLjTD7SWvWNW-8" vertex="1">
          <mxGeometry x="115" y="-4" width="60" height="30" as="geometry" />
        </mxCell>
        <mxCell id="w8iG2MjJuLjTD7SWvWNW-29" value="&lt;font style=&quot;font-size: 8px;&quot;&gt;254 mögliche Hosts&lt;/font&gt;" style="text;html=1;align=center;verticalAlign=middle;whiteSpace=wrap;rounded=0;" parent="w8iG2MjJuLjTD7SWvWNW-8" vertex="1">
          <mxGeometry x="180" y="8" width="70" height="6" as="geometry" />
        </mxCell>
        <mxCell id="w8iG2MjJuLjTD7SWvWNW-12" value="us-west-2" style="text;html=1;align=center;verticalAlign=middle;whiteSpace=wrap;rounded=0;" parent="1" vertex="1">
          <mxGeometry x="110" y="130" width="60" height="30" as="geometry" />
        </mxCell>
        <mxCell id="w8iG2MjJuLjTD7SWvWNW-13" value="10.0.0.0/16" style="text;html=1;align=center;verticalAlign=middle;whiteSpace=wrap;rounded=0;" parent="1" vertex="1">
          <mxGeometry x="80" y="190" width="60" height="30" as="geometry" />
        </mxCell>
        <mxCell id="w8iG2MjJuLjTD7SWvWNW-18" style="edgeStyle=orthogonalEdgeStyle;rounded=0;orthogonalLoop=1;jettySize=auto;html=1;" parent="1" source="w8iG2MjJuLjTD7SWvWNW-14" target="w8iG2MjJuLjTD7SWvWNW-17" edge="1">
          <mxGeometry relative="1" as="geometry" />
        </mxCell>
        <mxCell id="w8iG2MjJuLjTD7SWvWNW-14" value="&lt;font color=&quot;#00cc00&quot;&gt;10.0&lt;/font&gt;.&lt;font color=&quot;#cc0000&quot;&gt;0.0&lt;/font&gt;/16" style="text;html=1;align=center;verticalAlign=middle;whiteSpace=wrap;rounded=0;" parent="1" vertex="1">
          <mxGeometry x="50" y="740" width="60" height="30" as="geometry" />
        </mxCell>
        <mxCell id="w8iG2MjJuLjTD7SWvWNW-15" value="IPv4-Adresse" style="text;html=1;align=center;verticalAlign=middle;whiteSpace=wrap;rounded=0;" parent="1" vertex="1">
          <mxGeometry x="40" y="770" width="60" height="30" as="geometry" />
        </mxCell>
        <mxCell id="w8iG2MjJuLjTD7SWvWNW-16" value="CIDR-Notation" style="text;html=1;align=center;verticalAlign=middle;whiteSpace=wrap;rounded=0;" parent="1" vertex="1">
          <mxGeometry x="40" y="810" width="60" height="30" as="geometry" />
        </mxCell>
        <mxCell id="w8iG2MjJuLjTD7SWvWNW-17" value="0000 1010. 0000 0000 0000 0000. 0000 0000 /16" style="text;html=1;align=center;verticalAlign=middle;whiteSpace=wrap;rounded=0;" parent="1" vertex="1">
          <mxGeometry x="145" y="740" width="305" height="30" as="geometry" />
        </mxCell>
        <mxCell id="w8iG2MjJuLjTD7SWvWNW-19" value="&lt;font color=&quot;#00cc00&quot;&gt;1111 1111. 1111 1111&lt;/font&gt;. &lt;font color=&quot;#ff0000&quot;&gt;0000 0000. 0000 0000&lt;/font&gt; /16" style="text;html=1;align=center;verticalAlign=middle;whiteSpace=wrap;rounded=0;" parent="1" vertex="1">
          <mxGeometry x="147.5" y="780" width="305" height="30" as="geometry" />
        </mxCell>
        <mxCell id="w8iG2MjJuLjTD7SWvWNW-20" value="Netzwerkanteil" style="text;html=1;align=center;verticalAlign=middle;whiteSpace=wrap;rounded=0;" parent="1" vertex="1">
          <mxGeometry x="170" y="800" width="120" height="30" as="geometry" />
        </mxCell>
        <mxCell id="w8iG2MjJuLjTD7SWvWNW-21" value="Hostanteil" style="text;html=1;align=center;verticalAlign=middle;whiteSpace=wrap;rounded=0;" parent="1" vertex="1">
          <mxGeometry x="290" y="800" width="120" height="30" as="geometry" />
        </mxCell>
        <mxCell id="w8iG2MjJuLjTD7SWvWNW-22" value="Merke! Je größer die Schrägerzahl, desto kleiner das Netzwerk bzw. weniger Hosts in unserem Netzwerk möglich." style="text;html=1;align=center;verticalAlign=middle;whiteSpace=wrap;rounded=0;" parent="1" vertex="1">
          <mxGeometry x="27.5" y="860" width="242.5" height="30" as="geometry" />
        </mxCell>
        <mxCell id="w8iG2MjJuLjTD7SWvWNW-23" value="65534 mögliche Hosts" style="text;html=1;align=center;verticalAlign=middle;whiteSpace=wrap;rounded=0;" parent="1" vertex="1">
          <mxGeometry x="128.75" y="190" width="160" height="30" as="geometry" />
        </mxCell>
        <mxCell id="w8iG2MjJuLjTD7SWvWNW-25" value="&lt;font style=&quot;font-size: 8px;&quot;&gt;254 mögliche Hosts&lt;/font&gt;" style="text;html=1;align=center;verticalAlign=middle;whiteSpace=wrap;rounded=0;" parent="1" vertex="1">
          <mxGeometry x="250" y="312" width="70" height="6" as="geometry" />
        </mxCell>
        <mxCell id="w8iG2MjJuLjTD7SWvWNW-27" style="edgeStyle=orthogonalEdgeStyle;rounded=0;orthogonalLoop=1;jettySize=auto;html=1;exitX=0.5;exitY=1;exitDx=0;exitDy=0;" parent="1" source="w8iG2MjJuLjTD7SWvWNW-25" target="w8iG2MjJuLjTD7SWvWNW-25" edge="1">
          <mxGeometry relative="1" as="geometry" />
        </mxCell>
        <mxCell id="w8iG2MjJuLjTD7SWvWNW-34" value="&lt;font color=&quot;#00cc00&quot;&gt;1111 1111. 1111 1111&lt;/font&gt;. &lt;font color=&quot;#ff0000&quot;&gt;0000 0000. 0000 0010&lt;/font&gt;&amp;nbsp;/16" style="text;html=1;align=center;verticalAlign=middle;whiteSpace=wrap;rounded=0;" parent="1" vertex="1">
          <mxGeometry x="210" y="827" width="305" height="30" as="geometry" />
        </mxCell>
        <mxCell id="w8iG2MjJuLjTD7SWvWNW-35" value="10.0.1.255/16" style="text;html=1;align=center;verticalAlign=middle;whiteSpace=wrap;rounded=0;" parent="1" vertex="1">
          <mxGeometry x="280" y="890" width="60" height="30" as="geometry" />
        </mxCell>
        <mxCell id="w8iG2MjJuLjTD7SWvWNW-51" style="edgeStyle=orthogonalEdgeStyle;rounded=0;orthogonalLoop=1;jettySize=auto;html=1;" parent="1" source="w8iG2MjJuLjTD7SWvWNW-37" target="w8iG2MjJuLjTD7SWvWNW-46" edge="1">
          <mxGeometry relative="1" as="geometry" />
        </mxCell>
        <mxCell id="w8iG2MjJuLjTD7SWvWNW-39" value="" style="sketch=0;points=[[0,0,0],[0.25,0,0],[0.5,0,0],[0.75,0,0],[1,0,0],[0,1,0],[0.25,1,0],[0.5,1,0],[0.75,1,0],[1,1,0],[0,0.25,0],[0,0.5,0],[0,0.75,0],[1,0.25,0],[1,0.5,0],[1,0.75,0]];outlineConnect=0;fontColor=#232F3E;fillColor=#ED7100;strokeColor=#ffffff;dashed=0;verticalLabelPosition=bottom;verticalAlign=top;align=center;html=1;fontSize=12;fontStyle=0;aspect=fixed;shape=mxgraph.aws4.resourceIcon;resIcon=mxgraph.aws4.ec2;" parent="1" vertex="1">
          <mxGeometry x="120" y="595" width="40" height="40" as="geometry" />
        </mxCell>
        <mxCell id="w8iG2MjJuLjTD7SWvWNW-46" value="" style="outlineConnect=0;dashed=0;verticalLabelPosition=bottom;verticalAlign=top;align=center;html=1;shape=mxgraph.aws3.internet_gateway;fillColor=#F58534;gradientColor=none;" parent="1" vertex="1">
          <mxGeometry x="167.5" y="170" width="42.5" height="34" as="geometry" />
        </mxCell>
        <mxCell id="w8iG2MjJuLjTD7SWvWNW-47" value="" style="outlineConnect=0;dashed=0;verticalLabelPosition=bottom;verticalAlign=top;align=center;html=1;shape=mxgraph.aws3.vpc_nat_gateway;fillColor=#F58534;gradientColor=none;" parent="1" vertex="1">
          <mxGeometry x="107.5" y="470" width="40" height="39" as="geometry" />
        </mxCell>
        <mxCell id="w8iG2MjJuLjTD7SWvWNW-49" value="" style="outlineConnect=0;dashed=0;verticalLabelPosition=bottom;verticalAlign=top;align=center;html=1;shape=mxgraph.aws3.route_table;fillColor=#F58536;gradientColor=none;" parent="1" vertex="1">
          <mxGeometry x="320" y="170" width="30" height="29" as="geometry" />
        </mxCell>
        <mxCell id="w8iG2MjJuLjTD7SWvWNW-50" value="" style="image;aspect=fixed;perimeter=ellipsePerimeter;html=1;align=center;shadow=0;dashed=0;spacingTop=3;image=img/lib/active_directory/internet_cloud.svg;" parent="1" vertex="1">
          <mxGeometry x="180" y="60" width="50" height="31.5" as="geometry" />
        </mxCell>
        <mxCell id="w8iG2MjJuLjTD7SWvWNW-52" style="edgeStyle=orthogonalEdgeStyle;rounded=0;orthogonalLoop=1;jettySize=auto;html=1;entryX=0.396;entryY=0.885;entryDx=0;entryDy=0;entryPerimeter=0;" parent="1" source="w8iG2MjJuLjTD7SWvWNW-46" target="w8iG2MjJuLjTD7SWvWNW-50" edge="1">
          <mxGeometry relative="1" as="geometry" />
        </mxCell>
        <mxCell id="w8iG2MjJuLjTD7SWvWNW-55" value="Security Group" style="fontStyle=0;verticalAlign=top;align=center;spacingTop=-2;fillColor=none;rounded=0;whiteSpace=wrap;html=1;strokeColor=#FF0000;strokeWidth=2;dashed=1;container=1;collapsible=0;expand=0;recursiveResize=0;" parent="1" vertex="1">
          <mxGeometry x="97.5" y="316.5" width="222.5" height="153.5" as="geometry" />
        </mxCell>
        <mxCell id="w8iG2MjJuLjTD7SWvWNW-56" value="&lt;font style=&quot;font-size: 8px;&quot;&gt;SSH, HTTP(S) --&amp;gt; Ports 22, 80, 443 von überall (0.0.0.0/0&lt;/font&gt;" style="text;html=1;align=center;verticalAlign=middle;whiteSpace=wrap;rounded=0;" parent="w8iG2MjJuLjTD7SWvWNW-55" vertex="1">
          <mxGeometry x="100" y="118.5" width="107.5" height="30" as="geometry" />
        </mxCell>
        <mxCell id="w8iG2MjJuLjTD7SWvWNW-37" value="" style="sketch=0;points=[[0,0,0],[0.25,0,0],[0.5,0,0],[0.75,0,0],[1,0,0],[0,1,0],[0.25,1,0],[0.5,1,0],[0.75,1,0],[1,1,0],[0,0.25,0],[0,0.5,0],[0,0.75,0],[1,0.25,0],[1,0.5,0],[1,0.75,0]];outlineConnect=0;fontColor=#232F3E;fillColor=#ED7100;strokeColor=#ffffff;dashed=0;verticalLabelPosition=bottom;verticalAlign=top;align=center;html=1;fontSize=12;fontStyle=0;aspect=fixed;shape=mxgraph.aws4.resourceIcon;resIcon=mxgraph.aws4.ec2;" parent="w8iG2MjJuLjTD7SWvWNW-55" vertex="1">
          <mxGeometry x="12.5" y="44" width="40" height="40" as="geometry" />
        </mxCell>
        <mxCell id="w8iG2MjJuLjTD7SWvWNW-38" value="Webserver" style="text;html=1;align=center;verticalAlign=middle;whiteSpace=wrap;rounded=0;" parent="w8iG2MjJuLjTD7SWvWNW-55" vertex="1">
          <mxGeometry x="62.5" y="54" width="60" height="30" as="geometry" />
        </mxCell>
        <mxCell id="w8iG2MjJuLjTD7SWvWNW-65" value="VPC" style="sketch=0;outlineConnect=0;gradientColor=none;html=1;whiteSpace=wrap;fontSize=12;fontStyle=0;shape=mxgraph.aws4.group;grIcon=mxgraph.aws4.group_vpc;strokeColor=#879196;fillColor=none;verticalAlign=top;align=left;spacingLeft=30;fontColor=#879196;dashed=0;" parent="w8iG2MjJuLjTD7SWvWNW-55" vertex="1">
          <mxGeometry x="-78.75" y="-136.5" width="380" height="540" as="geometry" />
        </mxCell>
        <mxCell id="w8iG2MjJuLjTD7SWvWNW-57" value="Security Group" style="fontStyle=0;verticalAlign=top;align=center;spacingTop=-2;fillColor=none;rounded=0;whiteSpace=wrap;html=1;strokeColor=#FF0000;strokeWidth=2;dashed=1;container=1;collapsible=0;expand=0;recursiveResize=0;" parent="1" vertex="1">
          <mxGeometry x="105" y="580" width="195" height="77.5" as="geometry" />
        </mxCell>
        <mxCell id="w8iG2MjJuLjTD7SWvWNW-40" value="Datenbank" style="text;html=1;align=center;verticalAlign=middle;whiteSpace=wrap;rounded=0;" parent="w8iG2MjJuLjTD7SWvWNW-57" vertex="1">
          <mxGeometry x="65" y="20" width="60" height="30" as="geometry" />
        </mxCell>
        <mxCell id="w8iG2MjJuLjTD7SWvWNW-58" value="&lt;font style=&quot;font-size: 6px;&quot;&gt;3306 (MySQL) nur von Webser-Security Group&lt;/font&gt;" style="text;html=1;align=center;verticalAlign=middle;whiteSpace=wrap;rounded=0;" parent="w8iG2MjJuLjTD7SWvWNW-57" vertex="1">
          <mxGeometry x="130" y="35" width="60" height="30" as="geometry" />
        </mxCell>
        <mxCell id="w8iG2MjJuLjTD7SWvWNW-62" value="&lt;font style=&quot;font-size: 8px;&quot;&gt;public Route Table (0.0.0.0/0 auf IGW)&lt;/font&gt;" style="text;html=1;align=center;verticalAlign=middle;whiteSpace=wrap;rounded=0;" parent="1" vertex="1">
          <mxGeometry x="210" y="140" width="90" height="30" as="geometry" />
        </mxCell>
        <mxCell id="w8iG2MjJuLjTD7SWvWNW-63" value="&lt;font style=&quot;font-size: 8px;&quot;&gt;private Route Table (0.0.0.0/0 auf Nat Gateway)&lt;/font&gt;" style="text;html=1;align=center;verticalAlign=middle;whiteSpace=wrap;rounded=0;" parent="1" vertex="1">
          <mxGeometry x="290" y="130" width="90" height="30" as="geometry" />
        </mxCell>
        <mxCell id="w8iG2MjJuLjTD7SWvWNW-64" value="GROßES Internet" style="text;html=1;align=center;verticalAlign=middle;whiteSpace=wrap;rounded=0;" parent="1" vertex="1">
          <mxGeometry x="240" y="61.5" width="160" height="30" as="geometry" />
        </mxCell>
        <mxCell id="w8iG2MjJuLjTD7SWvWNW-48" value="" style="outlineConnect=0;dashed=0;verticalLabelPosition=bottom;verticalAlign=top;align=center;html=1;shape=mxgraph.aws3.route_table;fillColor=#F58536;gradientColor=none;" parent="1" vertex="1">
          <mxGeometry x="240" y="170" width="30" height="29" as="geometry" />
        </mxCell>
        <mxCell id="SgGQ-VTmLwI4Rc6uraaZ-1" value="Actor" style="shape=umlActor;verticalLabelPosition=bottom;verticalAlign=top;html=1;outlineConnect=0;" parent="1" vertex="1">
          <mxGeometry x="580" y="640" width="30" height="60" as="geometry" />
        </mxCell>
        <mxCell id="SgGQ-VTmLwI4Rc6uraaZ-2" value="&lt;font style=&quot;font-size: 10px;&quot;&gt;Für Redundanz erstellen wir public/private subnet auch in 2./3. AZ und deployen dieselben Services&lt;/font&gt;" style="ellipse;shape=cloud;whiteSpace=wrap;html=1;" parent="1" vertex="1">
          <mxGeometry x="570" y="535" width="320" height="135" as="geometry" />
        </mxCell>
      </root>
    </mxGraphModel>
  </diagram>
</mxfile>
